<svg width="71" height="21" viewBox="0 0 71 21" fill="none" xmlns="http://www.w3.org/2000/svg">
  <g clip-path="url(#clip0_2_3688)">
    <path d="M9.13743 6.91777C8.767 7.10306 8.4583 7.28835 8.21135 7.59718C7.96439 7.906 7.77917 8.21482 7.65569 8.58541C7.53222 8.956 7.47047 9.32659 7.47047 9.75894V17.4178C7.47047 17.4795 7.40874 17.5413 7.347 17.5413H4.32178C4.26004 17.5413 4.1983 17.4795 4.1983 17.4178V4.01482C4.1983 3.95306 4.26004 3.8913 4.32178 3.8913H6.91482C7.0383 3.8913 7.16178 3.95306 7.16178 4.07659L7.40874 4.87953C7.47048 5.00306 7.53222 5.00306 7.65569 4.94129C8.08787 4.50894 8.52004 4.20012 9.01395 3.95306C9.50787 3.706 10.0635 3.64424 10.6809 3.64424H12.1626C12.3479 3.58247 12.3479 3.64424 12.3479 3.706V6.54718C12.3479 6.60894 12.2861 6.67071 12.2244 6.67071H10.4957C9.94004 6.67071 9.50787 6.79424 9.13743 6.91777Z" fill="white" />
    <path d="M26.3009 10.6852C26.3009 11.7352 26.1774 12.7235 25.8687 13.5882C25.56 14.4529 25.1278 15.194 24.5105 15.8117C23.9548 16.4293 23.2139 16.9235 22.4113 17.294C21.547 17.6646 20.6209 17.7882 19.5713 17.7882C18.5218 17.7882 17.5339 17.6029 16.7313 17.294C15.9287 16.9235 15.1878 16.4911 14.6322 15.8117C14.0765 15.194 13.6444 14.4529 13.3357 13.5882C13.027 12.7235 12.9035 11.7352 12.9035 10.6852C12.9035 9.63522 13.027 8.64698 13.3357 7.78228C13.5826 6.91757 14.0148 6.1764 14.5705 5.55875C15.1261 4.9411 15.867 4.44698 16.6696 4.13816C17.4722 3.76757 18.46 3.64404 19.5096 3.64404C20.5592 3.64404 21.4852 3.82934 22.3496 4.13816C23.2139 4.50875 23.8931 4.9411 24.4487 5.62051C25.0044 6.23816 25.4983 6.97934 25.807 7.90581C26.1157 8.70875 26.3009 9.63522 26.3009 10.6852ZM23.0287 10.6852C23.0287 9.38816 22.72 8.39993 22.1644 7.65875C21.547 6.91757 20.6826 6.54698 19.5713 6.54698C18.46 6.54698 17.5957 6.91757 16.9783 7.65875C16.3609 8.39993 16.1139 9.38816 16.1139 10.6852C16.1139 11.9823 16.4226 12.9705 16.9783 13.7117C17.5957 14.4529 18.3983 14.8235 19.5713 14.8235C20.7444 14.8235 21.6087 14.4529 22.1644 13.7117C22.72 12.9705 23.0287 11.9823 23.0287 10.6852Z" fill="white" />
    <path d="M36.7348 4.07641C36.7966 3.95288 36.8583 3.89111 36.9818 3.89111H40.0687C40.1922 3.89111 40.254 3.95288 40.1922 4.07641L35.747 17.4176C35.6853 17.4794 35.6853 17.5411 35.5618 17.5411H31.1783C31.1166 17.5411 31.0548 17.4794 30.9931 17.4176L26.4861 4.07641C26.4861 4.01464 26.4244 3.95288 26.4861 3.95288C26.5479 3.89111 26.5479 3.89111 26.6096 3.89111H29.6966C29.7583 3.89111 29.82 3.95288 29.8818 4.07641L33.1539 14.5146C33.1539 14.5764 33.2157 14.6382 33.2774 14.6382C33.3392 14.6382 33.4009 14.5764 33.4009 14.5146L36.7348 4.07641Z" fill="white" />
    <path d="M49.947 16.244C49.5766 16.6146 49.0827 16.9852 48.3418 17.294C47.6627 17.6646 46.7366 17.7881 45.687 17.7881C44.7609 17.7881 43.9583 17.6646 43.2792 17.4793C42.6001 17.2323 42.0444 16.9234 41.6122 16.5529C41.18 16.1823 40.8714 15.6881 40.6244 15.194C40.3774 14.6381 40.3157 14.0823 40.3157 13.4646C40.3157 12.9087 40.4392 12.3529 40.6861 11.797C40.9331 11.2411 41.2418 10.8087 41.7357 10.3764C42.2296 9.94403 42.9087 9.63521 43.6496 9.38815C44.3905 9.14109 45.2548 9.01756 46.2427 9.01756H48.774C49.0209 9.01756 49.2679 8.9558 49.3914 8.83227C49.5148 8.70874 49.5766 8.58521 49.5766 8.39991C49.5766 8.27638 49.5766 8.09109 49.5148 7.84403C49.4531 7.59697 49.3296 7.41168 49.1444 7.22638C48.9592 7.04109 48.6505 6.8558 48.28 6.6705C47.9096 6.54697 47.354 6.42344 46.7366 6.42344C46.2427 6.42344 45.8105 6.48521 45.4401 6.54697C45.1314 6.6705 44.8227 6.79403 44.6374 6.91756C44.4522 7.10285 44.267 7.28815 44.2053 7.47344C44.0818 7.7205 44.0201 7.9058 44.0201 8.15285C44.0201 8.21462 43.9583 8.27638 43.8966 8.27638H40.9331C40.8714 8.27638 40.8096 8.21462 40.8096 8.15285C40.8096 7.34991 40.9948 6.6705 41.3035 6.05286C41.6122 5.43521 42.0444 4.94109 42.6001 4.5705C43.1557 4.19991 43.7731 3.89109 44.514 3.7058C45.2548 3.5205 45.9957 3.39697 46.7983 3.39697C48.6505 3.39697 50.194 3.82933 51.2435 4.69403C52.3548 5.55874 52.9105 6.8558 52.9105 8.52344V13.7734C52.9105 14.0205 52.9722 14.2676 53.1574 14.3911C53.3427 14.5146 53.5896 14.6381 53.8366 14.6381H54.2687C54.3305 14.6381 54.3922 14.6999 54.3922 14.7617V17.1705C54.3922 17.2323 54.3305 17.294 54.2687 17.294H52.9105C52.2314 17.294 51.6757 17.1705 51.2435 16.9234C50.8114 16.6764 50.5027 16.3676 50.2557 15.997C50.1322 16.1823 50.0705 16.1823 49.947 16.244ZM45.687 14.8234C46.3661 14.8234 46.9835 14.7617 47.4774 14.5764C47.9714 14.3911 48.4035 14.144 48.7122 13.897C49.0209 13.5881 49.2679 13.2793 49.3914 12.9705C49.5148 12.5999 49.6383 12.2911 49.6383 11.9205C49.6383 11.8587 49.5766 11.797 49.5148 11.797H46.4279C45.8105 11.797 45.3783 11.8587 45.0079 11.9823C44.6374 12.1058 44.3287 12.2293 44.1435 12.4146C43.9583 12.5999 43.7731 12.7852 43.7114 12.9705C43.6496 13.1558 43.5879 13.3411 43.5879 13.5264C43.5879 13.6499 43.6496 13.8352 43.7114 13.9587C43.7731 14.144 43.8966 14.2676 44.0201 14.3911C44.2053 14.5146 44.3905 14.6381 44.6992 14.6999C44.9461 14.8234 45.2548 14.8234 45.687 14.8234Z" fill="white" />
    <path d="M61.6156 3.58228C63.3443 3.58228 64.7643 4.01463 65.8756 4.87933C66.9869 5.74404 67.6661 6.91757 67.913 8.33816C67.913 8.39992 67.913 8.46169 67.7896 8.46169H64.7026C64.6409 8.46169 64.5791 8.39992 64.5174 8.33816C64.2704 7.72051 63.9617 7.28816 63.4678 6.91757C63.0356 6.60875 62.3565 6.42345 61.5539 6.42345C60.9982 6.42345 60.5043 6.54698 60.0722 6.73228C59.64 6.97933 59.3313 7.22639 59.0226 7.59698C58.7139 7.96757 58.5287 8.39992 58.4052 8.9558C58.2817 9.44992 58.22 10.0676 58.22 10.6235C58.22 11.2411 58.2817 11.797 58.4052 12.2911C58.5287 12.7852 58.7756 13.2793 59.0226 13.6499C59.3313 14.0205 59.64 14.3293 60.0722 14.5146C60.5043 14.7617 60.9982 14.8235 61.5539 14.8235C62.48 14.8235 63.0974 14.6382 63.5296 14.3293C63.9617 14.0205 64.2704 13.5264 64.5174 12.9087C64.5791 12.847 64.6409 12.7852 64.7026 12.7852H67.7896C67.913 12.7852 67.913 12.847 67.913 12.9087C67.6043 14.4529 66.9252 15.6264 65.8139 16.4293C64.7026 17.2323 63.2826 17.6646 61.5539 17.6646C60.5043 17.6646 59.5165 17.4793 58.7139 17.1705C57.9113 16.7999 57.2322 16.3676 56.6765 15.6882C56.1209 15.0705 55.6887 14.3293 55.38 13.4646C55.0713 12.5999 54.9478 11.6117 54.9478 10.5617C54.9478 9.51169 55.0713 8.52345 55.38 7.65875C55.6887 6.79404 56.1209 6.05286 56.6765 5.43522C57.2322 4.81757 57.9113 4.32345 58.7139 4.01463C59.64 3.76757 60.5661 3.58228 61.6156 3.58228Z" fill="white" />
  </g>
  <defs>
    <clipPath id="clip0_2_3688">
      <rect width="71" height="21" fill="white" />
    </clipPath>
  </defs>
</svg>